<svg width="96" height="69" viewBox="0 0 96 69" fill="none" xmlns="http://www.w3.org/2000/svg">
<path d="M4.356 18.144C3.048 18.144 1.992 17.886 1.188 17.37C0.804 17.142 0.612 16.818 0.612 16.398C0.612 16.158 0.678 15.966 0.81 15.822C0.942 15.666 1.104 15.588 1.296 15.588C1.5 15.588 1.782 15.684 2.142 15.876C2.526 16.056 2.874 16.194 3.186 16.29C3.51 16.386 3.918 16.434 4.41 16.434C4.914 16.434 5.304 16.35 5.58 16.182C5.868 16.014 6.012 15.78 6.012 15.48C6.012 15.276 5.952 15.114 5.832 14.994C5.724 14.874 5.52 14.766 5.22 14.67C4.932 14.562 4.488 14.442 3.888 14.31C2.82 14.094 2.052 13.788 1.584 13.392C1.128 12.996 0.9 12.45 0.9 11.754C0.9 11.226 1.056 10.752 1.368 10.332C1.68 9.9 2.106 9.57 2.646 9.342C3.198 9.102 3.822 8.982 4.518 8.982C5.022 8.982 5.508 9.048 5.976 9.18C6.444 9.3 6.864 9.48 7.236 9.72C7.62 9.96 7.812 10.278 7.812 10.674C7.812 10.914 7.746 11.118 7.614 11.286C7.482 11.442 7.32 11.52 7.128 11.52C6.996 11.52 6.864 11.496 6.732 11.448C6.612 11.388 6.456 11.304 6.264 11.196C5.916 11.016 5.616 10.884 5.364 10.8C5.112 10.704 4.8 10.656 4.428 10.656C3.984 10.656 3.63 10.746 3.366 10.926C3.114 11.106 2.988 11.352 2.988 11.664C2.988 11.964 3.12 12.192 3.384 12.348C3.648 12.504 4.158 12.66 4.914 12.816C5.718 12.984 6.348 13.176 6.804 13.392C7.26 13.608 7.584 13.878 7.776 14.202C7.98 14.526 8.082 14.94 8.082 15.444C8.082 16.26 7.74 16.914 7.056 17.406C6.384 17.898 5.484 18.144 4.356 18.144ZM13.8123 18.144C12.9363 18.144 12.1623 17.958 11.4903 17.586C10.8303 17.214 10.3203 16.686 9.96033 16.002C9.60033 15.318 9.42033 14.52 9.42033 13.608C9.42033 12.696 9.60633 11.892 9.97833 11.196C10.3623 10.488 10.8963 9.942 11.5803 9.558C12.2643 9.174 13.0503 8.982 13.9383 8.982C14.4063 8.982 14.8743 9.048 15.3423 9.18C15.8223 9.312 16.2423 9.492 16.6023 9.72C16.9863 9.972 17.1783 10.29 17.1783 10.674C17.1783 10.938 17.1123 11.154 16.9803 11.322C16.8603 11.478 16.6983 11.556 16.4943 11.556C16.3623 11.556 16.2243 11.526 16.0803 11.466C15.9363 11.406 15.7923 11.334 15.6483 11.25C15.3843 11.094 15.1323 10.974 14.8923 10.89C14.6523 10.794 14.3763 10.746 14.0643 10.746C13.3203 10.746 12.7443 10.992 12.3363 11.484C11.9403 11.964 11.7423 12.66 11.7423 13.572C11.7423 14.472 11.9403 15.168 12.3363 15.66C12.7443 16.14 13.3203 16.38 14.0643 16.38C14.3643 16.38 14.6283 16.338 14.8563 16.254C15.0963 16.158 15.3603 16.032 15.6483 15.876C15.8283 15.768 15.9843 15.69 16.1163 15.642C16.2483 15.582 16.3803 15.552 16.5123 15.552C16.7043 15.552 16.8663 15.636 16.9983 15.804C17.1303 15.972 17.1963 16.182 17.1963 16.434C17.1963 16.638 17.1483 16.818 17.0523 16.974C16.9683 17.118 16.8243 17.25 16.6203 17.37C16.2483 17.61 15.8163 17.802 15.3243 17.946C14.8323 18.078 14.3283 18.144 13.8123 18.144ZM23.6094 9.018C23.9214 8.994 24.1674 9.06 24.3474 9.216C24.5274 9.372 24.6174 9.606 24.6174 9.918C24.6174 10.242 24.5394 10.482 24.3834 10.638C24.2274 10.794 23.9454 10.896 23.5374 10.944L22.9974 10.998C22.2894 11.07 21.7674 11.31 21.4314 11.718C21.1074 12.126 20.9454 12.636 20.9454 13.248V17.028C20.9454 17.376 20.8374 17.646 20.6214 17.838C20.4054 18.018 20.1354 18.108 19.8114 18.108C19.4874 18.108 19.2174 18.018 19.0014 17.838C18.7974 17.646 18.6954 17.376 18.6954 17.028V10.062C18.6954 9.726 18.7974 9.468 19.0014 9.288C19.2174 9.108 19.4814 9.018 19.7934 9.018C20.1054 9.018 20.3574 9.108 20.5494 9.288C20.7414 9.456 20.8374 9.702 20.8374 10.026V10.746C21.0654 10.218 21.4014 9.81 21.8454 9.522C22.3014 9.234 22.8054 9.072 23.3574 9.036L23.6094 9.018ZM29.4242 18.144C28.5242 18.144 27.7322 17.958 27.0482 17.586C26.3762 17.214 25.8542 16.68 25.4822 15.984C25.1102 15.288 24.9242 14.478 24.9242 13.554C24.9242 12.63 25.1102 11.826 25.4822 11.142C25.8542 10.446 26.3762 9.912 27.0482 9.54C27.7322 9.168 28.5242 8.982 29.4242 8.982C30.3242 8.982 31.1102 9.168 31.7822 9.54C32.4662 9.912 32.9882 10.446 33.3482 11.142C33.7202 11.826 33.9062 12.63 33.9062 13.554C33.9062 14.478 33.7202 15.288 33.3482 15.984C32.9882 16.68 32.4662 17.214 31.7822 17.586C31.1102 17.958 30.3242 18.144 29.4242 18.144ZM29.4062 16.398C30.1382 16.398 30.6962 16.158 31.0802 15.678C31.4642 15.198 31.6562 14.49 31.6562 13.554C31.6562 12.63 31.4642 11.928 31.0802 11.448C30.6962 10.956 30.1442 10.71 29.4242 10.71C28.7042 10.71 28.1462 10.956 27.7502 11.448C27.3662 11.928 27.1742 12.63 27.1742 13.554C27.1742 14.49 27.3662 15.198 27.7502 15.678C28.1342 16.158 28.6862 16.398 29.4062 16.398ZM36.8798 18.108C36.5558 18.108 36.2858 18.018 36.0698 17.838C35.8658 17.646 35.7638 17.376 35.7638 17.028V6.282C35.7638 5.934 35.8658 5.67 36.0698 5.49C36.2858 5.31 36.5558 5.22 36.8798 5.22C37.2038 5.22 37.4738 5.31 37.6898 5.49C37.9058 5.67 38.0138 5.934 38.0138 6.282V17.028C38.0138 17.376 37.9058 17.646 37.6898 17.838C37.4738 18.018 37.2038 18.108 36.8798 18.108ZM41.4501 18.108C41.1261 18.108 40.8561 18.018 40.6401 17.838C40.4361 17.646 40.3341 17.376 40.3341 17.028V6.282C40.3341 5.934 40.4361 5.67 40.6401 5.49C40.8561 5.31 41.1261 5.22 41.4501 5.22C41.7741 5.22 42.0441 5.31 42.2601 5.49C42.4761 5.67 42.5841 5.934 42.5841 6.282V17.028C42.5841 17.376 42.4761 17.646 42.2601 17.838C42.0441 18.018 41.7741 18.108 41.4501 18.108ZM57.1351 5.22C57.4711 5.22 57.7471 5.316 57.9631 5.508C58.1791 5.7 58.2871 5.952 58.2871 6.264V17.028C58.2871 17.352 58.1851 17.61 57.9811 17.802C57.7771 17.994 57.5071 18.09 57.1711 18.09C56.8351 18.09 56.5651 17.994 56.3611 17.802C56.1571 17.61 56.0551 17.352 56.0551 17.028V16.578C55.7911 17.07 55.4071 17.454 54.9031 17.73C54.4111 18.006 53.8471 18.144 53.2111 18.144C52.4551 18.144 51.7771 17.952 51.1771 17.568C50.5891 17.184 50.1271 16.644 49.7911 15.948C49.4671 15.24 49.3051 14.43 49.3051 13.518C49.3051 12.606 49.4671 11.808 49.7911 11.124C50.1271 10.44 50.5891 9.912 51.1771 9.54C51.7651 9.168 52.4431 8.982 53.2111 8.982C53.8471 8.982 54.4111 9.114 54.9031 9.378C55.3951 9.642 55.7731 10.014 56.0371 10.494V6.228C56.0371 5.928 56.1331 5.688 56.3251 5.508C56.5291 5.316 56.7991 5.22 57.1351 5.22ZM53.8051 16.398C54.5251 16.398 55.0771 16.152 55.4611 15.66C55.8571 15.168 56.0551 14.466 56.0551 13.554C56.0551 12.642 55.8571 11.946 55.4611 11.466C55.0771 10.974 54.5311 10.728 53.8231 10.728C53.1031 10.728 52.5451 10.968 52.1491 11.448C51.7531 11.928 51.5551 12.618 51.5551 13.518C51.5551 14.43 51.7531 15.138 52.1491 15.642C52.5451 16.146 53.0971 16.398 53.8051 16.398ZM64.6156 18.144C63.7156 18.144 62.9236 17.958 62.2396 17.586C61.5676 17.214 61.0456 16.68 60.6736 15.984C60.3016 15.288 60.1156 14.478 60.1156 13.554C60.1156 12.63 60.3016 11.826 60.6736 11.142C61.0456 10.446 61.5676 9.912 62.2396 9.54C62.9236 9.168 63.7156 8.982 64.6156 8.982C65.5156 8.982 66.3016 9.168 66.9736 9.54C67.6576 9.912 68.1796 10.446 68.5396 11.142C68.9116 11.826 69.0976 12.63 69.0976 13.554C69.0976 14.478 68.9116 15.288 68.5396 15.984C68.1796 16.68 67.6576 17.214 66.9736 17.586C66.3016 17.958 65.5156 18.144 64.6156 18.144ZM64.5976 16.398C65.3296 16.398 65.8876 16.158 66.2716 15.678C66.6556 15.198 66.8476 14.49 66.8476 13.554C66.8476 12.63 66.6556 11.928 66.2716 11.448C65.8876 10.956 65.3356 10.71 64.6156 10.71C63.8956 10.71 63.3376 10.956 62.9416 11.448C62.5576 11.928 62.3656 12.63 62.3656 13.554C62.3656 14.49 62.5576 15.198 62.9416 15.678C63.3256 16.158 63.8776 16.398 64.5976 16.398ZM82.7125 9.684C82.7965 9.468 82.9165 9.306 83.0725 9.198C83.2405 9.09 83.4205 9.036 83.6125 9.036C83.8885 9.036 84.1345 9.132 84.3505 9.324C84.5785 9.504 84.6925 9.732 84.6925 10.008C84.6925 10.164 84.6625 10.302 84.6025 10.422L81.6325 17.388C81.5365 17.616 81.3865 17.79 81.1825 17.91C80.9905 18.03 80.7745 18.09 80.5345 18.09C80.3065 18.09 80.0905 18.03 79.8865 17.91C79.6945 17.79 79.5505 17.616 79.4545 17.388L77.3125 12.24L75.2425 17.388C75.1465 17.616 74.9965 17.79 74.7925 17.91C74.6005 18.03 74.3845 18.09 74.1445 18.09C73.9165 18.09 73.7005 18.03 73.4965 17.91C73.2925 17.79 73.1425 17.616 73.0465 17.388L70.0945 10.422C70.0345 10.266 70.0045 10.134 70.0045 10.026C70.0045 9.75 70.1245 9.516 70.3645 9.324C70.6045 9.12 70.8685 9.018 71.1565 9.018C71.3605 9.018 71.5465 9.072 71.7145 9.18C71.8825 9.288 72.0085 9.45 72.0925 9.666L74.2165 15.156L76.3945 9.72C76.4905 9.492 76.6285 9.324 76.8085 9.216C76.9885 9.096 77.1865 9.036 77.4025 9.036C77.6185 9.036 77.8165 9.096 77.9965 9.216C78.1765 9.324 78.3145 9.492 78.4105 9.72L80.6065 15.174L82.7125 9.684ZM91.3425 8.982C92.3985 8.982 93.1845 9.282 93.7005 9.882C94.2165 10.482 94.4745 11.388 94.4745 12.6V17.028C94.4745 17.364 94.3725 17.628 94.1685 17.82C93.9765 18.012 93.7065 18.108 93.3585 18.108C93.0105 18.108 92.7345 18.012 92.5305 17.82C92.3265 17.628 92.2245 17.364 92.2245 17.028V12.726C92.2245 12.042 92.0925 11.544 91.8285 11.232C91.5765 10.92 91.1745 10.764 90.6225 10.764C89.9745 10.764 89.4525 10.968 89.0565 11.376C88.6725 11.784 88.4805 12.33 88.4805 13.014V17.028C88.4805 17.364 88.3785 17.628 88.1745 17.82C87.9705 18.012 87.6945 18.108 87.3465 18.108C86.9985 18.108 86.7225 18.012 86.5185 17.82C86.3265 17.628 86.2305 17.364 86.2305 17.028V10.062C86.2305 9.75 86.3325 9.498 86.5365 9.306C86.7405 9.114 87.0165 9.018 87.3645 9.018C87.6765 9.018 87.9285 9.114 88.1205 9.306C88.3245 9.486 88.4265 9.726 88.4265 10.026V10.512C88.7265 10.02 89.1285 9.642 89.6325 9.378C90.1365 9.114 90.7065 8.982 91.3425 8.982Z" fill="black"/>
<rect x="39" y="34" width="20" height="35" rx="10" fill="#FCA60F"/>
<path d="M48 60C48 58.8954 48.8954 58 50 58C51.1046 58 52 58.8954 52 60V63C52 64.1046 51.1046 65 50 65C48.8954 65 48 64.1046 48 63V60Z" fill="white"/>
</svg>
