<svg width="514" height="526" viewBox="0 0 514 526" fill="none" xmlns="http://www.w3.org/2000/svg">
<path fill-rule="evenodd" clip-rule="evenodd" d="M278.004 29.2918C326.692 40.0824 377.704 41.7921 417.683 71.6038C462.06 104.695 502.064 149.034 511.692 203.55C521.411 258.577 490.125 309.702 468.861 361.377C445.294 418.649 438.908 497.113 381.419 520.133C323.411 543.36 265.835 486.365 206.634 466.379C159.635 450.512 105.534 450.634 70.7608 415.255C36.0452 379.935 32.7078 327.093 22.1682 278.7C10.8188 226.59 -11.2741 173.377 7.18312 123.341C26.635 70.6085 69.5869 24.6599 122.679 6.22234C173.367 -11.3802 225.619 17.6818 278.004 29.2918Z" fill="#96836F" fill-opacity="0.11"/>
</svg>
